<svg width="22" height="22" viewBox="0 0 22 22" fill="none" xmlns="http://www.w3.org/2000/svg">
<path d="M21.2858 18.1205C20.9798 17.8145 19.6565 16.3333 14.5168 11.1937C16.6731 4.00613 11.9693 0.311832 6.33711 0.748595C6.1794 0.760825 6.10229 0.944395 6.2016 1.06751L9.90562 5.65937C9.91996 5.67715 9.92779 5.69931 9.92779 5.72215V9.19409C9.92779 9.28943 9.86049 9.37151 9.76701 9.39021L5.39125 10.2654C5.35847 10.2719 5.32581 10.2629 5.30225 10.2392C4.67894 9.61127 2.60705 7.42453 1.16345 5.96666C1.04818 5.85025 0.849878 5.92231 0.829014 6.08479C-0.348584 15.2558 7.84224 16.0714 11.7634 14.8649L17.3297 21.2853" stroke="#585858"/>
</svg>
