<svg width="30" height="30" viewBox="0 0 30 30" fill="none" xmlns="http://www.w3.org/2000/svg">
<path d="M26.4844 6.5625C24.5449 6.5625 22.9688 8.13281 22.9688 10.0781V11.25H18.7324C20.1445 8.83594 20.8594 7.02539 20.8594 5.85938C20.8594 2.63086 18.2285 0 15 0C11.7715 0 9.14062 2.63086 9.14062 5.85938C9.14062 7.02539 9.85547 8.83594 11.2676 11.25C10.793 11.25 7.44141 11.25 7.03125 11.25V10.0781C7.03125 8.13867 5.45508 6.5625 3.51562 6.5625C1.57617 6.5625 0 8.13281 0 10.0781V13.3594C0 13.6816 0.263672 13.9453 0.585938 13.9453C0.908203 13.9453 1.17188 13.6816 1.17188 13.3594V10.0781C1.17188 8.7832 2.2207 7.73438 3.51562 7.73438C4.81055 7.73438 5.85938 8.7832 5.85938 10.0781V23.8652C5.23828 23.3086 4.41797 22.9688 3.51562 22.9688C2.61328 22.9688 1.79297 23.3086 1.17188 23.8652V18.0469C1.17188 17.7246 0.908203 17.4609 0.585938 17.4609C0.263672 17.4609 0 17.7246 0 18.0469V26.4844C0 28.4941 1.73438 30 3.68555 30H26.4844C28.4238 30 30 28.4238 30 26.4844V10.0781C30 8.13867 28.4238 6.5625 26.4844 6.5625ZM24.1406 10.0781C24.1406 8.7832 25.1895 7.73438 26.4844 7.73438C27.7793 7.73438 28.8281 8.7832 28.8281 10.0781V23.8477C28.4238 23.4902 27.9375 23.2207 27.4102 23.0859C26.2383 22.7813 25.0254 23.0684 24.1406 23.8594C24.1406 23.3613 24.1406 10.7812 24.1406 10.0781ZM22.9688 18.2812H15.4688C13.5059 16.4121 9.75586 12.8379 9.31641 12.4219H11.9766C13.2539 14.4668 14.5137 16.1543 14.5312 16.1719C14.6426 16.3184 14.8184 16.4062 15 16.4062C15.1816 16.4062 15.3574 16.3184 15.4688 16.1719C15.4805 16.1543 16.7402 14.4668 18.0234 12.4219H22.9688V18.2812ZM15 1.17188C17.584 1.17188 19.6875 3.27539 19.6875 5.85938C19.6875 8.0332 16.2539 13.0664 15 14.8242C13.7227 13.0371 10.3125 8.01562 10.3125 5.85938C10.3125 3.27539 12.416 1.17188 15 1.17188ZM1.17188 26.4844C1.17188 25.1895 2.2207 24.1406 3.51562 24.1406C4.81055 24.1406 5.85938 25.1895 5.85938 26.4844C5.85938 26.8066 6.12305 27.0703 6.44531 27.0703C6.76758 27.0703 7.03125 26.8066 7.03125 26.4844V16.7168L12.9785 22.3828L6.21094 28.8281H3.68555C2.36719 28.8281 1.17188 27.8438 1.17188 26.4844ZM14.2324 22.8047C14.3496 22.6934 14.4141 22.541 14.4141 22.3828C14.4141 22.2246 14.3496 22.0664 14.2324 21.9609L7.03125 15.0996V12.4219H7.61719C7.6582 12.4629 14.5488 19.0254 14.8301 19.2891C14.9414 19.3945 15.082 19.4531 15.2344 19.4531H22.9688V21.7969H18.5156C18.3574 21.7969 18.2109 21.8613 18.0996 21.9668L11.2441 28.8281H7.91016L14.2324 22.8047ZM26.4844 28.8281H12.8965L18.7559 22.9688H22.9688V26.4844C22.9688 26.8066 23.2324 27.0703 23.5547 27.0703C23.877 27.0703 24.1406 26.8066 24.1406 26.4844C24.1406 24.9668 25.5586 23.8184 27.1172 24.2227C28.0664 24.4687 28.8281 25.3477 28.8281 26.4844C28.8281 27.7793 27.7793 28.8281 26.4844 28.8281Z" fill="#FF9D00"/>
<path d="M15 8.78906C16.6172 8.78906 17.9297 7.47656 17.9297 5.85938C17.9297 4.24219 16.6172 2.92969 15 2.92969C13.3828 2.92969 12.0703 4.24219 12.0703 5.85938C12.0703 7.47656 13.3828 8.78906 15 8.78906ZM15 4.10156C15.9668 4.10156 16.7578 4.89258 16.7578 5.85938C16.7578 6.82617 15.9668 7.61719 15 7.61719C14.0332 7.61719 13.2422 6.82617 13.2422 5.85938C13.2422 4.89258 14.0332 4.10156 15 4.10156Z" fill="#FF9D00"/>
<path d="M0.585938 16.2891C0.908203 16.2891 1.17188 16.0254 1.17188 15.7031C1.17188 15.3809 0.908203 15.1172 0.585938 15.1172C0.263672 15.1172 0 15.3809 0 15.7031C0 16.0254 0.263672 16.2891 0.585938 16.2891Z" fill="#FF9D00"/>
</svg>
