<svg width="24" height="24" viewBox="0 0 24 24" fill="none" xmlns="http://www.w3.org/2000/svg">
<path d="M21.1875 5.25C19.6359 5.25 18.375 6.50625 18.375 8.0625V9H14.9859C16.1156 7.06875 16.6875 5.62031 16.6875 4.6875C16.6875 2.10469 14.5828 0 12 0C9.41719 0 7.3125 2.10469 7.3125 4.6875C7.3125 5.62031 7.88438 7.06875 9.01406 9C8.63438 9 5.95312 9 5.625 9V8.0625C5.625 6.51094 4.36406 5.25 2.8125 5.25C1.26094 5.25 0 6.50625 0 8.0625V10.6875C0 10.9453 0.210938 11.1562 0.46875 11.1562C0.726562 11.1562 0.9375 10.9453 0.9375 10.6875V8.0625C0.9375 7.02656 1.77656 6.1875 2.8125 6.1875C3.84844 6.1875 4.6875 7.02656 4.6875 8.0625V19.0922C4.19062 18.6469 3.53437 18.375 2.8125 18.375C2.09063 18.375 1.43438 18.6469 0.9375 19.0922V14.4375C0.9375 14.1797 0.726562 13.9688 0.46875 13.9688C0.210938 13.9688 0 14.1797 0 14.4375V21.1875C0 22.7953 1.3875 24 2.94844 24H21.1875C22.7391 24 24 22.7391 24 21.1875V8.0625C24 6.51094 22.7391 5.25 21.1875 5.25ZM19.3125 8.0625C19.3125 7.02656 20.1516 6.1875 21.1875 6.1875C22.2234 6.1875 23.0625 7.02656 23.0625 8.0625V19.0781C22.7391 18.7922 22.35 18.5766 21.9281 18.4688C20.9906 18.225 20.0203 18.4547 19.3125 19.0875C19.3125 18.6891 19.3125 8.625 19.3125 8.0625ZM18.375 14.625H12.375C10.8047 13.1297 7.80469 10.2703 7.45312 9.9375H9.58125C10.6031 11.5734 11.6109 12.9234 11.625 12.9375C11.7141 13.0547 11.8547 13.125 12 13.125C12.1453 13.125 12.2859 13.0547 12.375 12.9375C12.3844 12.9234 13.3922 11.5734 14.4188 9.9375H18.375V14.625ZM12 0.9375C14.0672 0.9375 15.75 2.62031 15.75 4.6875C15.75 6.42656 13.0031 10.4531 12 11.8594C10.9781 10.4297 8.25 6.4125 8.25 4.6875C8.25 2.62031 9.93281 0.9375 12 0.9375ZM0.9375 21.1875C0.9375 20.1516 1.77656 19.3125 2.8125 19.3125C3.84844 19.3125 4.6875 20.1516 4.6875 21.1875C4.6875 21.4453 4.89844 21.6562 5.15625 21.6562C5.41406 21.6562 5.625 21.4453 5.625 21.1875V13.3734L10.3828 17.9062L4.96875 23.0625H2.94844C1.89375 23.0625 0.9375 22.275 0.9375 21.1875ZM11.3859 18.2438C11.4797 18.1547 11.5312 18.0328 11.5312 17.9062C11.5312 17.7797 11.4797 17.6531 11.3859 17.5687L5.625 12.0797V9.9375H6.09375C6.12656 9.97031 11.6391 15.2203 11.8641 15.4313C11.9531 15.5156 12.0656 15.5625 12.1875 15.5625H18.375V17.4375H14.8125C14.6859 17.4375 14.5687 17.4891 14.4797 17.5734L8.99531 23.0625H6.32812L11.3859 18.2438ZM21.1875 23.0625H10.3172L15.0047 18.375H18.375V21.1875C18.375 21.4453 18.5859 21.6562 18.8438 21.6562C19.1016 21.6562 19.3125 21.4453 19.3125 21.1875C19.3125 19.9734 20.4469 19.0547 21.6937 19.3781C22.4531 19.575 23.0625 20.2781 23.0625 21.1875C23.0625 22.2234 22.2234 23.0625 21.1875 23.0625Z" fill="white"/>
<path d="M12 7.03125C13.2938 7.03125 14.3438 5.98125 14.3438 4.6875C14.3438 3.39375 13.2938 2.34375 12 2.34375C10.7062 2.34375 9.65625 3.39375 9.65625 4.6875C9.65625 5.98125 10.7062 7.03125 12 7.03125ZM12 3.28125C12.7734 3.28125 13.4062 3.91406 13.4062 4.6875C13.4062 5.46094 12.7734 6.09375 12 6.09375C11.2266 6.09375 10.5938 5.46094 10.5938 4.6875C10.5938 3.91406 11.2266 3.28125 12 3.28125Z" fill="white"/>
<path d="M0.46875 13.0312C0.726562 13.0312 0.9375 12.8203 0.9375 12.5625C0.9375 12.3047 0.726562 12.0938 0.46875 12.0938C0.210938 12.0938 0 12.3047 0 12.5625C0 12.8203 0.210938 13.0312 0.46875 13.0312Z" fill="white"/>
</svg>
